<?xml version="1.0" standalone="no"?><!DOCTYPE svg PUBLIC "-//W3C//DTD SVG 1.1//EN" "http://www.w3.org/Graphics/SVG/1.1/DTD/svg11.dtd"><svg class="icon" width="32px" height="32.00px" viewBox="0 0 1024 1024" version="1.1" xmlns="http://www.w3.org/2000/svg"><path d="M0 0h1024v1024H0z" fill="#D8D8D8" fill-opacity="0" /><path d="M341.333333 85.333333h384.128L938.666667 300.629333V853.333333a85.333333 85.333333 0 0 1-85.333334 85.333334H341.333333a85.333333 85.333333 0 0 1-85.333333-85.333334V170.666667a85.333333 85.333333 0 0 1 85.333333-85.333334z" fill="#F05223" /><path d="M725.333333 85.333333v189.696c0 13.056 10.709333 23.637333 23.893334 23.637334H938.666667l-213.333334-213.333334z" fill="#FF835B" /><path d="M128 341.333333m42.666667 0l640 0q42.666667 0 42.666666 42.666667l0 384q0 42.666667-42.666666 42.666667l-640 0q-42.666667 0-42.666667-42.666667l0-384q0-42.666667 42.666667-42.666667Z" fill="#FF835B" /><path d="M360.490667 426.837333c-82.517333-2.56-146.773333 25.173333-189.824 66.304v92.501334c29.312-77.610667 109.994667-113.237333 177.578666-112.64 84.48 0.853333 149.632 59.306667 150.016 125.397333 0.384 63.146667-28.501333 109.653333-106.282666 121.130667-42.453333 6.229333-108.8-16.64-105.898667-75.434667 1.493333-30.336 27.306667-47.445333 56.746667-46.250667-28.885333 35.498667 9.344 61.525333 36.309333 56.192a56.064 56.064 0 0 0 47.104-54.912c0-22.314667-22.912-58.368-79.744-57.130666-70.314667 1.578667-114.56 48-116.053333 105.429333C228.565333 719.658667 302.293333 767.146667 377.898667 768c110.976 1.322667 176.853333-65.578667 176.725333-163.413333-0.170667-88.704-77.653333-173.994667-194.176-177.706667v-0.042667z" fill="#FFE7E2" /></svg>